<?xml version="1.0" encoding="UTF-8"?>
<svg id="Layer_2" data-name="Layer 2" xmlns="http://www.w3.org/2000/svg" viewBox="0 0 1248.1 541.58">
  <defs>
    <style>
      .cls-1 {
        fill: #5459a7;
      }

      .cls-2 {
        fill: #19202c;
      }
    </style>
  </defs>
  <g id="Layer_1-2" data-name="Layer 1">
    <g>
      <path class="cls-2" d="M19.44,161.09c12.96-33.24,31.13-61.75,54.51-85.53,23.37-23.78,51.46-42.31,84.25-55.62C190.99,6.65,226.94,0,266.09,0s75.73,6.65,108.27,19.94c32.52,13.3,60.61,31.84,84.25,55.62,23.64,23.78,41.93,52.29,54.9,85.53,12.96,33.25,19.44,69.81,19.44,109.7s-6.48,76.46-19.44,109.7c-12.96,33.25-31.26,61.75-54.9,85.53-23.64,23.78-51.73,42.32-84.25,55.61-32.53,13.29-68.62,19.95-108.27,19.95s-75.1-6.65-107.88-19.95c-32.78-13.29-60.88-31.83-84.25-55.61-23.39-23.78-41.55-52.28-54.51-85.53C6.48,347.25,0,310.68,0,270.79s6.48-76.45,19.44-109.7ZM396.85,210.49c-6.86-17.75-16.39-33.01-28.59-45.76-12.2-12.75-26.95-22.62-44.22-29.63-17.29-7-36.6-10.5-57.95-10.5s-40.54,3.5-57.56,10.5c-17.04,7.01-31.77,16.88-44.22,29.63-12.46,12.75-21.99,28.01-28.59,45.76-6.61,17.76-9.91,37.64-9.91,59.64s3.3,41.89,9.91,59.64c6.6,17.76,16.13,33.01,28.59,45.76,12.45,12.75,27.19,22.63,44.22,29.63,17.02,7.01,36.22,10.5,57.56,10.5s40.66-3.49,57.95-10.5c17.27-7,32.02-16.88,44.22-29.63,12.2-12.75,21.73-28,28.59-45.76,6.86-17.75,10.29-37.63,10.29-59.64s-3.43-41.88-10.29-59.64Z"/>
      <path class="cls-2" d="M798.32,138.25c6.22.84,12.44,1.96,18.67,3.35,5.54,1.24,9.48,6.14,9.48,11.81v122.73c0,7.49-6.67,13.22-14.07,12.08h0c-4.97-.76-10.49-1.14-16.56-1.14-9.93,0-18.91,1.4-26.91,4.17-8.01,2.78-14.49,7.08-19.46,12.88-4.97,5.81-8.84,13.14-11.59,21.97-2.77,8.84-4.14,19.57-4.14,32.19v171.21c0,6.68-5.41,12.09-12.09,12.09h-152.16c-6.68,0-12.09-5.41-12.09-12.09v-177.27c0-68.66,18.34-121.81,55.05-159.44,36.7-37.61,88.44-56.43,155.23-56.43,11.03,0,21.24.64,30.63,1.89Z"/>
      <path class="cls-2" d="M994.51,136.36c6.93,0,12.55,5.62,12.55,12.55v179.48c0,10.58.96,19.79,2.9,27.59,1.93,7.82,4.72,14.36,8.35,19.66,3.63,5.29,8.35,9.2,14.16,11.72,5.81,2.53,12.58,3.78,20.33,3.78,7.26,0,13.79-1.25,19.6-3.78,5.81-2.52,10.64-6.43,14.52-11.72,3.87-5.29,6.77-11.97,8.71-20.03,1.93-8.06,2.9-17.13,2.9-27.22v-179.48c0-6.93,5.62-12.55,12.55-12.55h124.47c6.93,0,12.55,5.62,12.55,12.55v170.41c0,34.28-4.61,65.15-13.79,92.61-9.2,27.48-22.39,50.78-39.57,69.93-17.19,19.16-38,33.9-62.44,44.23-24.45,10.32-51.91,15.5-82.4,15.5s-57.97-5.17-82.4-15.5c-24.45-10.32-45.26-25.07-62.44-44.23-17.19-19.15-30.38-42.45-39.57-69.93-9.2-27.46-13.8-58.33-13.8-92.61v-170.41c0-6.93,5.62-12.55,12.55-12.55h130.28Z"/>
      <path class="cls-1" d="M606.42,0h556.02C1209.72,0,1248.1,38.38,1248.1,85.66h0c0,6.83-5.55,12.38-12.38,12.38h-629.3c-27.06,0-49.02-21.97-49.02-49.02h0C557.4,21.97,579.37,0,606.42,0Z"/>
    </g>
  </g>
</svg>